<svg xmlns="http://www.w3.org/2000/svg" width="148" height="147" viewBox="0 0 128 107" fill="none">
  <ellipse cx="45.0283" cy="45" rx="45.0283" ry="45" transform="matrix(0.987688 0.156434 -0.156431 0.987689 26 1.88373)" fill="#FFF9F8"/>
  <rect width="3.51944" height="11.846" rx="1.75972" transform="matrix(-0.0581535 -0.998309 0.998322 -0.0578875 8.57227 39.7472)" fill="#FF7A64"/>
  <rect width="3.51996" height="11.8443" rx="1.75998" transform="matrix(0.655776 -0.754953 0.755325 0.655354 12.7344 27.2039)" fill="#FF7A64"/>
  <rect width="3.52141" height="11.8394" rx="1.7607" transform="matrix(0.994537 -0.104372 0.104689 0.994506 22.9102 18.6831)" fill="#FF7A64"/>
  <rect width="53.2547" height="57.1017" rx="5.88077" transform="matrix(0.975542 -0.219804 0.220229 0.97545 23.6113 35.1745)" fill="#FFE8E3" stroke="#FFCDC5" stroke-width="1.27417"/>
  <rect width="45.5086" height="38.595" rx="1.96026" transform="matrix(0.975542 -0.219804 0.220229 0.97545 28.582 38.6316)" fill="#FFFDFC"/>
  <rect width="53.2593" height="57.0968" rx="5.88077" transform="matrix(0.987688 0.156434 -0.156431 0.987689 54.5645 35.5106)" fill="white" stroke="#FFCDC5" stroke-width="1.27417"/>
  <rect width="44.221" height="38.509" rx="1.96026" transform="matrix(0.987688 0.156434 -0.156431 0.987689 58.4092 40.9612)" fill="#FFF5F3"/>
  <path d="M90.9534 78.0024L60.8553 73.2354C60.0398 73.1062 59.7218 72.1013 60.3147 71.5266L61.7183 70.1657C63.1845 68.7442 65.422 68.4829 67.1764 69.5282C68.1429 70.1042 69.3647 70.0232 70.2469 69.3249L76.628 64.273C79.4599 62.0311 83.6153 62.775 85.4935 65.8602L91.9659 76.492C92.4098 77.2212 91.7966 78.136 90.9534 78.0024Z" fill="#FFCDC5"/>
  <ellipse cx="4.66613" cy="4.6632" rx="4.66613" ry="4.6632" transform="matrix(0.987688 0.156434 -0.156431 0.987689 61.6787 49.286)" fill="#FFCDC5"/>
  <rect width="3.52146" height="11.8393" rx="1.76073" transform="matrix(0.998322 -0.0578882 0.0581526 0.998308 101.821 28.0792)" fill="#FF7A64"/>
  <rect width="3.52094" height="11.841" rx="1.76047" transform="matrix(0.755323 0.655355 -0.655775 0.754955 114.375 32.246)" fill="#FF7A64"/>
  <rect width="3.51949" height="11.8459" rx="1.75975" transform="matrix(0.104687 0.994506 -0.994537 0.104373 122.898 42.4151)" fill="#FF7A64"/>
</svg>